<mxfile host="app.diagrams.net" modified="2023-03-26T16:44:49.821Z" agent="Mozilla/5.0 (Windows NT 10.0; Win64; x64) AppleWebKit/537.36 (KHTML, like Gecko) Chrome/108.0.0.0 YaBrowser/23.1.5.708 Yowser/2.5 Safari/537.36" etag="6OUKT8clrdd9IGMgNSON" version="21.1.1" type="device">
  <diagram name="Страница 1" id="Vk-sLIZHZTBSA7ZrQw_-">
    <mxGraphModel dx="2213" dy="1936" grid="1" gridSize="10" guides="1" tooltips="1" connect="1" arrows="1" fold="1" page="1" pageScale="1" pageWidth="827" pageHeight="1169" math="0" shadow="0">
      <root>
        <mxCell id="0" />
        <mxCell id="1" parent="0" />
        <mxCell id="IcBCCEdd22SQSV2fxfGD-1" value="Задача: Написать программу, которая из имеющегося массива строк формирует массив из строк, длина которых меньше либо равна 3 символам.&lt;br&gt;Первоначальный массив можно ввести с клавиатуры, либо задать на старте выполнения алгоритма. &lt;br&gt;При решении не рекомендуется пользоваться коллекциями, лучше обойтись исключительно массивами." style="text;html=1;align=center;verticalAlign=middle;resizable=0;points=[];autosize=1;strokeColor=none;fillColor=none;" parent="1" vertex="1">
          <mxGeometry x="-610" y="-20" width="840" height="60" as="geometry" />
        </mxCell>
        <mxCell id="02TKJTRQUDcu6E_adrIW-46" style="edgeStyle=orthogonalEdgeStyle;rounded=0;orthogonalLoop=1;jettySize=auto;html=1;exitX=0.5;exitY=1;exitDx=0;exitDy=0;entryX=0.5;entryY=0;entryDx=0;entryDy=0;" parent="1" source="02TKJTRQUDcu6E_adrIW-45" edge="1">
          <mxGeometry relative="1" as="geometry">
            <mxPoint x="-405" y="170" as="targetPoint" />
          </mxGeometry>
        </mxCell>
        <mxCell id="02TKJTRQUDcu6E_adrIW-45" value="Начало" style="ellipse;whiteSpace=wrap;html=1;" parent="1" vertex="1">
          <mxGeometry x="-465" y="60" width="120" height="80" as="geometry" />
        </mxCell>
        <mxCell id="vGL5LHJLQ1xOwaYaHl4A-17" style="edgeStyle=orthogonalEdgeStyle;rounded=0;orthogonalLoop=1;jettySize=auto;html=1;exitX=0.5;exitY=1;exitDx=0;exitDy=0;entryX=0;entryY=0.5;entryDx=0;entryDy=0;" parent="1" source="vGL5LHJLQ1xOwaYaHl4A-18" edge="1">
          <mxGeometry relative="1" as="geometry">
            <Array as="points">
              <mxPoint x="20" y="847" />
              <mxPoint x="-80" y="847" />
              <mxPoint x="-80" y="632" />
            </Array>
            <mxPoint x="-60" y="644" as="targetPoint" />
          </mxGeometry>
        </mxCell>
        <mxCell id="XpnPT4rFDsMcrHIboTDn-13" style="edgeStyle=orthogonalEdgeStyle;rounded=0;orthogonalLoop=1;jettySize=auto;html=1;exitX=0.5;exitY=1;exitDx=0;exitDy=0;entryX=0.5;entryY=0;entryDx=0;entryDy=0;" edge="1" parent="1" source="XpnPT4rFDsMcrHIboTDn-2" target="XpnPT4rFDsMcrHIboTDn-3">
          <mxGeometry relative="1" as="geometry" />
        </mxCell>
        <mxCell id="XpnPT4rFDsMcrHIboTDn-2" value="Ввод&lt;br&gt;string[] arr, &lt;br&gt;int cutLength&lt;br&gt;int newArrLength = 0&lt;br&gt;int newArrIndex = 0" style="shape=parallelogram;perimeter=parallelogramPerimeter;whiteSpace=wrap;html=1;fixedSize=1;" vertex="1" parent="1">
          <mxGeometry x="-490" y="170" width="170" height="80" as="geometry" />
        </mxCell>
        <mxCell id="XpnPT4rFDsMcrHIboTDn-12" style="edgeStyle=orthogonalEdgeStyle;rounded=0;orthogonalLoop=1;jettySize=auto;html=1;exitX=0.5;exitY=1;exitDx=0;exitDy=0;entryX=0.5;entryY=0;entryDx=0;entryDy=0;" edge="1" parent="1" source="XpnPT4rFDsMcrHIboTDn-3" target="XpnPT4rFDsMcrHIboTDn-4">
          <mxGeometry relative="1" as="geometry" />
        </mxCell>
        <mxCell id="XpnPT4rFDsMcrHIboTDn-3" value="int i = 0; i &amp;lt; arr.Length; i++" style="shape=hexagon;perimeter=hexagonPerimeter2;whiteSpace=wrap;html=1;fixedSize=1;" vertex="1" parent="1">
          <mxGeometry x="-490" y="280" width="170" height="80" as="geometry" />
        </mxCell>
        <mxCell id="XpnPT4rFDsMcrHIboTDn-6" style="edgeStyle=orthogonalEdgeStyle;rounded=0;orthogonalLoop=1;jettySize=auto;html=1;exitX=0.5;exitY=1;exitDx=0;exitDy=0;entryX=0.5;entryY=0;entryDx=0;entryDy=0;" edge="1" parent="1" source="XpnPT4rFDsMcrHIboTDn-4" target="XpnPT4rFDsMcrHIboTDn-5">
          <mxGeometry relative="1" as="geometry" />
        </mxCell>
        <mxCell id="XpnPT4rFDsMcrHIboTDn-29" style="edgeStyle=orthogonalEdgeStyle;rounded=0;orthogonalLoop=1;jettySize=auto;html=1;exitX=1;exitY=0.5;exitDx=0;exitDy=0;entryX=0;entryY=0.5;entryDx=0;entryDy=0;" edge="1" parent="1" source="XpnPT4rFDsMcrHIboTDn-4" target="XpnPT4rFDsMcrHIboTDn-28">
          <mxGeometry relative="1" as="geometry" />
        </mxCell>
        <mxCell id="XpnPT4rFDsMcrHIboTDn-4" value="i &amp;lt; arr.Length" style="rhombus;whiteSpace=wrap;html=1;" vertex="1" parent="1">
          <mxGeometry x="-470" y="390" width="130" height="60" as="geometry" />
        </mxCell>
        <mxCell id="XpnPT4rFDsMcrHIboTDn-9" style="edgeStyle=orthogonalEdgeStyle;rounded=0;orthogonalLoop=1;jettySize=auto;html=1;exitX=0.5;exitY=1;exitDx=0;exitDy=0;entryX=0.5;entryY=0;entryDx=0;entryDy=0;" edge="1" parent="1" source="XpnPT4rFDsMcrHIboTDn-5" target="XpnPT4rFDsMcrHIboTDn-8">
          <mxGeometry relative="1" as="geometry" />
        </mxCell>
        <mxCell id="XpnPT4rFDsMcrHIboTDn-14" style="edgeStyle=orthogonalEdgeStyle;rounded=0;orthogonalLoop=1;jettySize=auto;html=1;exitX=1;exitY=0.5;exitDx=0;exitDy=0;entryX=0;entryY=0.5;entryDx=0;entryDy=0;" edge="1" parent="1" source="XpnPT4rFDsMcrHIboTDn-5" target="XpnPT4rFDsMcrHIboTDn-3">
          <mxGeometry relative="1" as="geometry">
            <Array as="points">
              <mxPoint x="-260" y="510" />
              <mxPoint x="-260" y="620" />
              <mxPoint x="-550" y="620" />
              <mxPoint x="-550" y="320" />
            </Array>
          </mxGeometry>
        </mxCell>
        <mxCell id="XpnPT4rFDsMcrHIboTDn-5" value="arr[i].Length &amp;lt;= cutLength" style="rhombus;whiteSpace=wrap;html=1;" vertex="1" parent="1">
          <mxGeometry x="-500" y="480" width="190" height="60" as="geometry" />
        </mxCell>
        <mxCell id="XpnPT4rFDsMcrHIboTDn-7" value="ДА" style="text;html=1;align=center;verticalAlign=middle;resizable=0;points=[];autosize=1;strokeColor=none;fillColor=none;" vertex="1" parent="1">
          <mxGeometry x="-400" y="450" width="40" height="30" as="geometry" />
        </mxCell>
        <mxCell id="XpnPT4rFDsMcrHIboTDn-11" style="edgeStyle=orthogonalEdgeStyle;rounded=0;orthogonalLoop=1;jettySize=auto;html=1;exitX=0;exitY=0.5;exitDx=0;exitDy=0;entryX=0;entryY=0.5;entryDx=0;entryDy=0;" edge="1" parent="1" source="XpnPT4rFDsMcrHIboTDn-8" target="XpnPT4rFDsMcrHIboTDn-3">
          <mxGeometry relative="1" as="geometry">
            <Array as="points">
              <mxPoint x="-540" y="595" />
              <mxPoint x="-540" y="320" />
            </Array>
          </mxGeometry>
        </mxCell>
        <mxCell id="XpnPT4rFDsMcrHIboTDn-8" value="newArrLength++" style="rounded=0;whiteSpace=wrap;html=1;" vertex="1" parent="1">
          <mxGeometry x="-465" y="580" width="120" height="30" as="geometry" />
        </mxCell>
        <mxCell id="XpnPT4rFDsMcrHIboTDn-10" value="ДА" style="text;html=1;align=center;verticalAlign=middle;resizable=0;points=[];autosize=1;strokeColor=none;fillColor=none;" vertex="1" parent="1">
          <mxGeometry x="-400" y="540" width="40" height="30" as="geometry" />
        </mxCell>
        <mxCell id="XpnPT4rFDsMcrHIboTDn-15" value="НЕТ" style="text;html=1;align=center;verticalAlign=middle;resizable=0;points=[];autosize=1;strokeColor=none;fillColor=none;" vertex="1" parent="1">
          <mxGeometry x="-310" y="480" width="50" height="30" as="geometry" />
        </mxCell>
        <mxCell id="XpnPT4rFDsMcrHIboTDn-16" style="edgeStyle=orthogonalEdgeStyle;rounded=0;orthogonalLoop=1;jettySize=auto;html=1;exitX=0.5;exitY=1;exitDx=0;exitDy=0;entryX=0.5;entryY=0;entryDx=0;entryDy=0;" edge="1" parent="1" source="XpnPT4rFDsMcrHIboTDn-17" target="XpnPT4rFDsMcrHIboTDn-19">
          <mxGeometry relative="1" as="geometry" />
        </mxCell>
        <mxCell id="XpnPT4rFDsMcrHIboTDn-17" value="int i = 0; i &amp;lt; arr.Length; i++" style="shape=hexagon;perimeter=hexagonPerimeter2;whiteSpace=wrap;html=1;fixedSize=1;" vertex="1" parent="1">
          <mxGeometry x="-150" y="280" width="170" height="80" as="geometry" />
        </mxCell>
        <mxCell id="XpnPT4rFDsMcrHIboTDn-18" style="edgeStyle=orthogonalEdgeStyle;rounded=0;orthogonalLoop=1;jettySize=auto;html=1;exitX=0.5;exitY=1;exitDx=0;exitDy=0;entryX=0.5;entryY=0;entryDx=0;entryDy=0;" edge="1" parent="1" source="XpnPT4rFDsMcrHIboTDn-19" target="XpnPT4rFDsMcrHIboTDn-22">
          <mxGeometry relative="1" as="geometry" />
        </mxCell>
        <mxCell id="XpnPT4rFDsMcrHIboTDn-35" style="edgeStyle=orthogonalEdgeStyle;rounded=0;orthogonalLoop=1;jettySize=auto;html=1;exitX=1;exitY=0.5;exitDx=0;exitDy=0;" edge="1" parent="1" source="XpnPT4rFDsMcrHIboTDn-19" target="XpnPT4rFDsMcrHIboTDn-32">
          <mxGeometry relative="1" as="geometry">
            <Array as="points">
              <mxPoint x="90" y="420" />
              <mxPoint x="90" y="640" />
              <mxPoint x="-405" y="640" />
            </Array>
          </mxGeometry>
        </mxCell>
        <mxCell id="XpnPT4rFDsMcrHIboTDn-19" value="i &amp;lt; arr.Length" style="rhombus;whiteSpace=wrap;html=1;" vertex="1" parent="1">
          <mxGeometry x="-130" y="390" width="130" height="60" as="geometry" />
        </mxCell>
        <mxCell id="XpnPT4rFDsMcrHIboTDn-20" style="edgeStyle=orthogonalEdgeStyle;rounded=0;orthogonalLoop=1;jettySize=auto;html=1;exitX=0.5;exitY=1;exitDx=0;exitDy=0;entryX=0.5;entryY=0;entryDx=0;entryDy=0;" edge="1" parent="1" source="XpnPT4rFDsMcrHIboTDn-22" target="XpnPT4rFDsMcrHIboTDn-25">
          <mxGeometry relative="1" as="geometry" />
        </mxCell>
        <mxCell id="XpnPT4rFDsMcrHIboTDn-21" style="edgeStyle=orthogonalEdgeStyle;rounded=0;orthogonalLoop=1;jettySize=auto;html=1;exitX=1;exitY=0.5;exitDx=0;exitDy=0;entryX=0;entryY=0.5;entryDx=0;entryDy=0;" edge="1" parent="1" source="XpnPT4rFDsMcrHIboTDn-22" target="XpnPT4rFDsMcrHIboTDn-17">
          <mxGeometry relative="1" as="geometry">
            <Array as="points">
              <mxPoint x="80" y="510" />
              <mxPoint x="80" y="630" />
              <mxPoint x="-210" y="630" />
              <mxPoint x="-210" y="320" />
            </Array>
          </mxGeometry>
        </mxCell>
        <mxCell id="XpnPT4rFDsMcrHIboTDn-22" value="arr[i].Length &amp;lt;= cutLength" style="rhombus;whiteSpace=wrap;html=1;" vertex="1" parent="1">
          <mxGeometry x="-160" y="480" width="190" height="60" as="geometry" />
        </mxCell>
        <mxCell id="XpnPT4rFDsMcrHIboTDn-23" value="ДА" style="text;html=1;align=center;verticalAlign=middle;resizable=0;points=[];autosize=1;strokeColor=none;fillColor=none;" vertex="1" parent="1">
          <mxGeometry x="-60" y="450" width="40" height="30" as="geometry" />
        </mxCell>
        <mxCell id="XpnPT4rFDsMcrHIboTDn-24" style="edgeStyle=orthogonalEdgeStyle;rounded=0;orthogonalLoop=1;jettySize=auto;html=1;exitX=0;exitY=0.5;exitDx=0;exitDy=0;entryX=0;entryY=0.5;entryDx=0;entryDy=0;" edge="1" parent="1" source="XpnPT4rFDsMcrHIboTDn-25" target="XpnPT4rFDsMcrHIboTDn-17">
          <mxGeometry relative="1" as="geometry">
            <Array as="points">
              <mxPoint x="-200" y="595" />
              <mxPoint x="-200" y="320" />
            </Array>
          </mxGeometry>
        </mxCell>
        <mxCell id="XpnPT4rFDsMcrHIboTDn-25" value="&lt;div&gt;newArr[newArrIndex] = arr[i];&lt;/div&gt;&lt;div&gt;&lt;span style=&quot;background-color: initial;&quot;&gt;newArrIndex++;&lt;/span&gt;&lt;/div&gt;" style="rounded=0;whiteSpace=wrap;html=1;" vertex="1" parent="1">
          <mxGeometry x="-155" y="580" width="180" height="40" as="geometry" />
        </mxCell>
        <mxCell id="XpnPT4rFDsMcrHIboTDn-26" value="ДА" style="text;html=1;align=center;verticalAlign=middle;resizable=0;points=[];autosize=1;strokeColor=none;fillColor=none;" vertex="1" parent="1">
          <mxGeometry x="-60" y="550" width="40" height="30" as="geometry" />
        </mxCell>
        <mxCell id="XpnPT4rFDsMcrHIboTDn-27" value="НЕТ" style="text;html=1;align=center;verticalAlign=middle;resizable=0;points=[];autosize=1;strokeColor=none;fillColor=none;" vertex="1" parent="1">
          <mxGeometry x="30" y="480" width="50" height="30" as="geometry" />
        </mxCell>
        <mxCell id="XpnPT4rFDsMcrHIboTDn-31" style="edgeStyle=orthogonalEdgeStyle;rounded=0;orthogonalLoop=1;jettySize=auto;html=1;exitX=0.5;exitY=1;exitDx=0;exitDy=0;entryX=0.5;entryY=0;entryDx=0;entryDy=0;" edge="1" parent="1" source="XpnPT4rFDsMcrHIboTDn-28" target="XpnPT4rFDsMcrHIboTDn-17">
          <mxGeometry relative="1" as="geometry" />
        </mxCell>
        <mxCell id="XpnPT4rFDsMcrHIboTDn-28" value="string[] newArr = new string[newArrLength]" style="rounded=0;whiteSpace=wrap;html=1;" vertex="1" parent="1">
          <mxGeometry x="-190" y="200" width="250" height="40" as="geometry" />
        </mxCell>
        <mxCell id="XpnPT4rFDsMcrHIboTDn-30" value="НЕТ" style="text;html=1;align=center;verticalAlign=middle;resizable=0;points=[];autosize=1;strokeColor=none;fillColor=none;" vertex="1" parent="1">
          <mxGeometry x="-340" y="390" width="50" height="30" as="geometry" />
        </mxCell>
        <mxCell id="XpnPT4rFDsMcrHIboTDn-34" style="edgeStyle=orthogonalEdgeStyle;rounded=0;orthogonalLoop=1;jettySize=auto;html=1;exitX=0.5;exitY=1;exitDx=0;exitDy=0;entryX=0.5;entryY=0;entryDx=0;entryDy=0;" edge="1" parent="1" source="XpnPT4rFDsMcrHIboTDn-32" target="XpnPT4rFDsMcrHIboTDn-33">
          <mxGeometry relative="1" as="geometry" />
        </mxCell>
        <mxCell id="XpnPT4rFDsMcrHIboTDn-32" value="Вывод&lt;br&gt;newArr" style="shape=parallelogram;perimeter=parallelogramPerimeter;whiteSpace=wrap;html=1;fixedSize=1;" vertex="1" parent="1">
          <mxGeometry x="-465" y="670" width="120" height="60" as="geometry" />
        </mxCell>
        <mxCell id="XpnPT4rFDsMcrHIboTDn-33" value="Конец" style="ellipse;whiteSpace=wrap;html=1;" vertex="1" parent="1">
          <mxGeometry x="-465" y="760" width="120" height="80" as="geometry" />
        </mxCell>
        <mxCell id="XpnPT4rFDsMcrHIboTDn-36" value="НЕТ" style="text;html=1;align=center;verticalAlign=middle;resizable=0;points=[];autosize=1;strokeColor=none;fillColor=none;" vertex="1" parent="1">
          <mxGeometry y="390" width="50" height="30" as="geometry" />
        </mxCell>
      </root>
    </mxGraphModel>
  </diagram>
</mxfile>
